<svg width="33" height="33" viewBox="0 0 33 33" fill="none" xmlns="http://www.w3.org/2000/svg">
<mask id="mask0_89_1770" style="mask-type:alpha" maskUnits="userSpaceOnUse" x="0" y="0" width="33" height="33">
<rect width="33" height="33" fill="#D9D9D9"/>
</mask>
<g mask="url(#mask0_89_1770)">
<path d="M22.0908 12.3406C23.9029 12.3407 25.4252 12.9852 26.6582 14.2742C27.91 15.5633 28.5361 17.1142 28.5361 18.9265C28.5361 20.7574 27.91 22.3363 26.6582 23.6628C25.4252 24.9704 23.9028 25.6247 22.0908 25.6248C21.3809 25.6248 20.6796 25.512 19.9883 25.2878C19.2972 25.045 18.6997 24.6711 18.1953 24.1667L15.9248 21.9255L17.8027 20.1033L19.877 22.1775C20.1571 22.4576 20.4935 22.663 20.8857 22.7937C21.278 22.9244 21.6799 22.99 22.0908 22.99C23.1742 22.9899 24.0801 22.5977 24.8086 21.8132C25.5372 21.0099 25.9023 20.0475 25.9023 18.9265C25.9023 17.843 25.5284 16.9181 24.7812 16.1521C24.0527 15.3675 23.1556 14.9744 22.0908 14.9744C21.6799 14.9744 21.278 15.0496 20.8857 15.199C20.5122 15.3484 20.1758 15.5634 19.877 15.8435L11.0205 24.1951C10.4975 24.6808 9.89037 25.045 9.19922 25.2878C8.50793 25.512 7.80665 25.6248 7.09668 25.6248C5.28469 25.6247 3.76226 24.9704 2.5293 23.6628C1.29623 22.3363 0.679719 20.7574 0.679688 18.9265C0.679688 17.1142 1.2962 15.5633 2.5293 14.2742C3.78096 12.9852 5.30333 12.3407 7.09668 12.3406C7.82533 12.3406 8.52662 12.4619 9.19922 12.7048C9.8904 12.9477 10.4974 13.3215 11.0205 13.8259L13.375 16.0681L11.4688 17.8894L9.33887 15.8152C9.04 15.5164 8.69397 15.3014 8.30176 15.1707C7.90956 15.04 7.50755 14.9744 7.09668 14.9744C6.03191 14.9745 5.13481 15.3675 4.40625 16.1521C3.67781 16.9181 3.31348 17.843 3.31348 18.9265C3.31351 20.0475 3.66897 21.0099 4.37891 21.8132C5.10742 22.5977 6.01335 22.9899 7.09668 22.99C7.50771 22.99 7.90075 22.9245 8.27441 22.7937C8.66656 22.6629 9.02139 22.4576 9.33887 22.1775L18.1953 13.8259C18.7183 13.3216 19.3158 12.9477 19.9883 12.7048C20.6796 12.4619 21.3809 12.3406 22.0908 12.3406ZM-28.0596 9.43726C-27.099 9.43726 -26.2474 9.53873 -25.5059 9.74097C-24.7645 9.92634 -24.183 10.1957 -23.7617 10.5496C-23.3236 10.9035 -23.1045 11.334 -23.1045 11.8396C-23.1045 12.1764 -23.1891 12.4879 -23.3574 12.7742C-23.5259 13.0437 -23.7366 13.2629 -23.9893 13.4314C-24.3768 13.1618 -24.8995 12.9266 -25.5566 12.7244C-26.2138 12.5222 -26.93 12.4207 -27.7051 12.4207C-28.5309 12.4207 -29.1634 12.5638 -29.6016 12.8503C-30.0229 13.1368 -30.2334 13.5162 -30.2334 13.988C-30.2334 14.3419 -30.0902 14.6369 -29.8037 14.8728C-29.5172 15.1087 -29.079 15.3193 -28.4893 15.5046L-27.0732 15.9343C-25.5566 16.3893 -24.3938 17.0048 -23.585 17.78C-22.7593 18.5384 -22.3467 19.575 -22.3467 20.8894C-22.3467 22.2879 -22.8941 23.4253 -23.9893 24.3015C-25.0678 25.1778 -26.6184 25.6159 -28.6406 25.616C-29.6686 25.616 -30.5876 25.5069 -31.3965 25.2878C-32.2053 25.0688 -32.8455 24.7567 -33.3174 24.3523C-33.7723 23.9479 -33.9999 23.4763 -34 22.9373C-34 22.5328 -33.8824 22.1866 -33.6465 21.9001C-33.3937 21.5968 -33.1149 21.3692 -32.8115 21.2175C-32.3565 21.5883 -31.7837 21.9259 -31.0928 22.2292C-30.4019 22.5157 -29.6183 22.6589 -28.7422 22.6589C-27.8153 22.6589 -27.141 22.4901 -26.7197 22.1531C-26.2984 21.7992 -26.0879 21.3696 -26.0879 20.864C-26.0879 20.409 -26.2567 20.0382 -26.5938 19.7517C-26.914 19.4653 -27.4025 19.2205 -28.0596 19.0183L-29.5 18.5632C-30.3932 18.2767 -31.1775 17.9486 -31.8516 17.5779C-32.5088 17.2071 -33.0314 16.7348 -33.4189 16.1619C-33.7896 15.5889 -33.9746 14.8642 -33.9746 13.988C-33.9746 12.5893 -33.4521 11.4854 -32.4072 10.6765C-31.3455 9.85079 -29.8964 9.43727 -28.0596 9.43726ZM39.2979 9.43726C40.2585 9.43726 41.11 9.53873 41.8516 9.74097C42.5929 9.92632 43.1744 10.1957 43.5957 10.5496C44.0339 10.9035 44.2529 11.334 44.2529 11.8396C44.2529 12.1764 44.1684 12.4878 44 12.7742C43.8315 13.0437 43.6208 13.2629 43.3682 13.4314C42.9806 13.1618 42.4579 12.9266 41.8008 12.7244C41.1436 12.5222 40.4275 12.4207 39.6523 12.4207C38.8266 12.4207 38.194 12.5638 37.7559 12.8503C37.3347 13.1368 37.124 13.5162 37.124 13.988C37.124 14.3419 37.2673 14.6369 37.5537 14.8728C37.8402 15.1087 38.2785 15.3193 38.8682 15.5046L40.2842 15.9343C41.8009 16.3893 42.9635 17.0048 43.7725 17.78C44.5982 18.5384 45.0107 19.5749 45.0107 20.8894C45.0107 22.288 44.4634 23.4252 43.3682 24.3015C42.2896 25.1779 40.7391 25.616 38.7168 25.616C37.6888 25.616 36.7699 25.5069 35.9609 25.2878C35.1522 25.0688 34.5118 24.7567 34.04 24.3523C33.5852 23.948 33.3575 23.4763 33.3574 22.9373C33.3574 22.5328 33.476 22.1866 33.7119 21.9001C33.9646 21.597 34.2427 21.3692 34.5459 21.2175C35.0009 21.5883 35.5737 21.9259 36.2646 22.2292C36.9555 22.5157 37.7391 22.6589 38.6152 22.6589C39.542 22.6589 40.2164 22.4901 40.6377 22.1531C41.059 21.7992 41.2695 21.3696 41.2695 20.864C41.2695 20.4091 41.1016 20.0382 40.7646 19.7517C40.4444 19.4652 39.9551 19.2205 39.2979 19.0183L37.8574 18.5632C36.9642 18.2767 36.18 17.9486 35.5059 17.5779C34.8488 17.2072 34.327 16.7347 33.9395 16.1619C33.5687 15.5889 33.3828 14.8644 33.3828 13.988C33.3828 12.5893 33.9054 11.4854 34.9502 10.6765C36.0118 9.85078 37.4611 9.4373 39.2979 9.43726ZM80.333 12.7498C81.1587 12.7498 81.8919 12.8332 82.5322 13.0017C83.1894 13.1534 83.7035 13.3895 84.0742 13.7097C84.4618 14.0299 84.6553 14.4178 84.6553 14.8728C84.6553 15.193 84.5879 15.4794 84.4531 15.7322C84.3183 15.9681 84.1495 16.1616 83.9473 16.3132C83.7619 16.1954 83.4837 16.069 83.1133 15.9343C82.7426 15.7996 82.3298 15.6904 81.875 15.6062C81.437 15.5051 81.0157 15.4539 80.6113 15.4539C80.0046 15.4539 79.5153 15.5468 79.1445 15.7322C78.7908 15.9175 78.6144 16.1871 78.6143 16.5408C78.6143 16.7767 78.7148 16.9882 78.917 17.1736C79.1192 17.342 79.4732 17.4853 79.9785 17.6033L81.0908 17.8552C82.557 18.1923 83.6106 18.6731 84.251 19.2966C84.8914 19.9202 85.2119 20.7291 85.2119 21.7234C85.2119 22.9367 84.7566 23.8889 83.8467 24.5798C82.9367 25.2708 81.6222 25.6159 79.9033 25.616C78.5214 25.616 77.3834 25.414 76.4902 25.0095C75.614 24.5882 75.1758 24.0068 75.1758 23.2654C75.1758 22.9452 75.2517 22.6588 75.4033 22.406C75.555 22.1364 75.7409 21.9258 75.96 21.7742C76.4486 22.0606 77.0046 22.3215 77.6279 22.5574C78.2514 22.7933 78.9676 22.9118 79.7764 22.9119C81.074 22.9119 81.7236 22.5239 81.7236 21.7488C81.7236 21.4286 81.6051 21.1754 81.3691 20.99C81.1332 20.7879 80.7623 20.636 80.2568 20.5349L79.0439 20.2322C77.7465 19.9626 76.7771 19.5328 76.1367 18.9431C75.4963 18.3533 75.1758 17.5519 75.1758 16.5408C75.1759 15.395 75.6396 14.4768 76.5664 13.7859C77.4933 13.0949 78.7489 12.7498 80.333 12.7498ZM52.998 12.7742C54.1438 12.7742 55.138 13.0019 55.9805 13.4568C56.8399 13.9118 57.5142 14.5358 58.0029 15.3279C58.4917 16.12 58.7363 17.0303 58.7363 18.0583C58.7363 18.5636 58.6014 18.9509 58.332 19.2205C58.0624 19.4732 57.6915 19.6335 57.2197 19.7009L50.4209 20.696C50.6238 21.3858 50.9841 21.9061 51.5068 22.2546C52.164 22.6926 52.9646 22.9119 53.9082 22.9119C54.6159 22.9118 55.2732 22.8104 55.8799 22.6082C56.5033 22.4059 57.0004 22.1868 57.3711 21.9509C57.607 22.1026 57.8015 22.3046 57.9531 22.5574C58.1216 22.8102 58.2051 23.0805 58.2051 23.3669C58.205 23.8387 58.003 24.2429 57.5986 24.5798C57.211 24.9169 56.68 25.1701 56.0059 25.3386C55.3319 25.5071 54.5568 25.5915 53.6807 25.5916C52.3663 25.5916 51.1949 25.3468 50.167 24.8582C49.1559 24.3695 48.3554 23.6362 47.7656 22.6589C47.1926 21.6815 46.9053 20.4676 46.9053 19.0183C46.9053 17.9737 47.0742 17.0554 47.4111 16.2634C47.7482 15.4713 48.1948 14.8217 48.751 14.3162C49.3238 13.7939 49.9728 13.4068 50.6973 13.1541C51.4388 12.9013 52.206 12.7742 52.998 12.7742ZM93.2617 12.7742C94.4074 12.7742 95.4016 13.0019 96.2441 13.4568C97.1036 13.9118 97.7779 14.5358 98.2666 15.3279C98.7553 16.12 99 17.0303 99 18.0583C98.9999 18.5636 98.8651 18.9509 98.5957 19.2205C98.3261 19.4732 97.9552 19.6335 97.4834 19.7009L90.6846 20.696C90.8875 21.3858 91.2477 21.9061 91.7705 22.2546C92.4277 22.6926 93.2283 22.9119 94.1719 22.9119C94.8796 22.9118 95.5369 22.8104 96.1436 22.6082C96.767 22.4059 97.264 22.1868 97.6348 21.9509C97.8706 22.1025 98.0642 22.3048 98.2158 22.5574C98.3843 22.8102 98.4688 23.0804 98.4688 23.3669C98.4686 23.8386 98.2666 24.2429 97.8623 24.5798C97.4747 24.9169 96.9436 25.1701 96.2695 25.3386C95.5955 25.5071 94.8205 25.5915 93.9443 25.5916C92.63 25.5916 91.4586 25.3468 90.4307 24.8582C89.4196 24.3695 88.6191 23.6362 88.0293 22.6589C87.4563 21.6815 87.1689 20.4676 87.1689 19.0183C87.169 17.9737 87.3379 17.0554 87.6748 16.2634C88.0119 15.4713 88.4585 14.8217 89.0146 14.3162C89.5875 13.7939 90.2365 13.4068 90.9609 13.1541C91.7025 12.9013 92.4696 12.7742 93.2617 12.7742ZM-6.82324 12.7742C-5.94706 12.7742 -5.1379 12.926 -4.39648 13.2292C-3.63814 13.5157 -3.03973 13.988 -2.60156 14.6453C-2.1466 15.2856 -1.91901 16.1365 -1.91895 17.198V25.1863C-2.07062 25.22 -2.28969 25.2627 -2.57617 25.3132C-2.86264 25.3638 -3.17471 25.3884 -3.51172 25.3884C-4.18567 25.3884 -4.67424 25.2708 -4.97754 25.0349C-5.28087 24.799 -5.4326 24.3693 -5.43262 23.7458V17.325C-5.43262 16.7183 -5.60996 16.2716 -5.96387 15.9851C-6.3009 15.6987 -6.74768 15.5554 -7.30371 15.5554C-7.708 15.5555 -8.10376 15.6399 -8.49121 15.8083C-8.77937 15.9393 -9.03659 16.0962 -9.26367 16.2781C-9.22261 16.481 -9.19922 16.6865 -9.19922 16.8953V25.1863C-9.35089 25.22 -9.57849 25.2627 -9.88184 25.3132C-10.1683 25.3638 -10.4718 25.3884 -10.792 25.3884C-11.466 25.3884 -11.963 25.2708 -12.2832 25.0349C-12.5865 24.799 -12.7383 24.3693 -12.7383 23.7458V17.325C-12.7383 16.7183 -12.9156 16.2716 -13.2695 15.9851C-13.6233 15.6988 -14.0779 15.5555 -14.6338 15.5554C-15.0214 15.5554 -15.3761 15.6142 -15.6963 15.7322C-16.0163 15.8501 -16.2859 15.9763 -16.5049 16.1111V25.1863C-16.6566 25.22 -16.8756 25.2627 -17.1621 25.3132C-17.4486 25.3638 -17.7606 25.3884 -18.0977 25.3884C-18.7548 25.3884 -19.2433 25.2708 -19.5635 25.0349C-19.8668 24.799 -20.0185 24.3693 -20.0186 23.7458V15.783C-20.0186 15.3785 -19.9342 15.0409 -19.7656 14.7712C-19.5803 14.5018 -19.3192 14.2492 -18.9824 14.0134C-18.4432 13.6427 -17.7773 13.3477 -16.9854 13.1287C-16.1764 12.8927 -15.3504 12.7742 -14.5078 12.7742C-13.682 12.7742 -12.9234 12.9013 -12.2324 13.1541C-11.6734 13.3537 -11.184 13.6336 -10.7617 13.991C-10.3492 13.713 -9.89621 13.4667 -9.40137 13.2546C-8.6768 12.9345 -7.81737 12.7742 -6.82324 12.7742ZM66.9287 12.7742C68.698 12.7742 70.0715 13.1706 71.0488 13.9626C72.0263 14.7379 72.5146 15.8759 72.5146 17.3757V25.1863C72.363 25.22 72.1438 25.2627 71.8574 25.3132C71.571 25.3638 71.2674 25.3884 70.9473 25.3884C70.2733 25.3884 69.7762 25.2708 69.4561 25.0349C69.1528 24.799 69.001 24.3693 69.001 23.7458V17.4763C69.0009 16.8193 68.8073 16.3392 68.4199 16.0359C68.0324 15.7157 67.5182 15.5555 66.8779 15.5554C66.4229 15.5554 66.0094 15.6142 65.6387 15.7322C65.2681 15.8333 64.9312 15.968 64.6279 16.1365V25.1863C64.4763 25.22 64.2572 25.2627 63.9707 25.3132C63.6842 25.3638 63.3722 25.3884 63.0352 25.3884C62.3781 25.3884 61.8895 25.2708 61.5693 25.0349C61.266 24.799 61.1143 24.3693 61.1143 23.7458V15.783C61.1143 15.3616 61.1987 15.024 61.3672 14.7712C61.5525 14.5018 61.8136 14.2492 62.1504 14.0134C62.6728 13.6595 63.3471 13.3646 64.1729 13.1287C64.9986 12.8927 65.9176 12.7742 66.9287 12.7742ZM53.0234 15.4041C52.2145 15.4041 51.5488 15.6734 51.0264 16.2126C50.5511 16.7032 50.2798 17.3892 50.209 18.2703L55.4248 17.4763C55.3742 16.9372 55.1465 16.4571 54.7422 16.0359C54.3546 15.6146 53.7817 15.4041 53.0234 15.4041ZM93.2871 15.4041C92.4782 15.4041 91.8125 15.6734 91.29 16.2126C90.8148 16.7032 90.5435 17.3892 90.4727 18.2703L95.6885 17.4763C95.6379 16.9372 95.4102 16.4571 95.0059 16.0359C94.6183 15.6146 94.0454 15.4041 93.2871 15.4041Z" fill="url(#paint0_linear_89_1770)"/>
<path d="M31.9701 8.92921C32.2634 8.7382 32.2142 8.54073 31.8625 8.49723L29.9563 8.26419C29.6201 8.22997 29.173 7.96119 28.9696 7.67103L27.8697 6.09676C27.6787 5.80353 27.4812 5.85272 27.4377 6.20436L27.2047 8.11063C27.1704 8.44685 26.9017 8.89393 26.6115 9.09728L25.0372 10.1972C24.744 10.3882 24.7932 10.5857 25.1448 10.6292L27.0511 10.8622C27.3873 10.8965 27.8344 11.1652 28.0378 11.4554L29.1377 13.0296C29.3287 13.3229 29.5262 13.2737 29.5697 12.922L29.8027 11.0158C29.8369 10.6796 30.1057 10.2325 30.3959 10.0291L31.9701 8.92921Z" fill="url(#paint1_linear_89_1770)"/>
</g>
<defs>
<linearGradient id="paint0_linear_89_1770" x1="-36.2931" y1="9.48188" x2="-17.3304" y2="66.1823" gradientUnits="userSpaceOnUse">
<stop stop-color="#FF9D3F"/>
<stop offset="0.3125" stop-color="#F46772"/>
<stop offset="0.668269" stop-color="#C56AED"/>
<stop offset="1" stop-color="#62A4F8"/>
</linearGradient>
<linearGradient id="paint1_linear_89_1770" x1="23.8194" y1="6.8709" x2="33.793" y2="7.92104" gradientUnits="userSpaceOnUse">
<stop stop-color="#FF9D3F"/>
<stop offset="0.3125" stop-color="#F46772"/>
<stop offset="0.668269" stop-color="#C56AED"/>
<stop offset="1" stop-color="#62A4F8"/>
</linearGradient>
</defs>
</svg>
