<svg width="33" height="21" viewBox="0 0 33 21" fill="none" xmlns="http://www.w3.org/2000/svg">
<mask id="mask0_74_7279" style="mask-type:alpha" maskUnits="userSpaceOnUse" x="0" y="0" width="33" height="21">
<rect width="33" height="21" fill="#D9D9D9"/>
</mask>
<g mask="url(#mask0_74_7279)">
<path d="M23.0908 7.34058C24.9029 7.34066 26.4252 7.98521 27.6582 9.27417C28.91 10.5633 29.5361 12.1142 29.5361 13.9265C29.5361 15.7574 28.91 17.3363 27.6582 18.6628C26.4252 19.9704 24.9028 20.6247 23.0908 20.6248C22.3809 20.6248 21.6796 20.512 20.9883 20.2878C20.2972 20.045 19.6997 19.6711 19.1953 19.1667L16.9248 16.9255L18.8027 15.1033L20.877 17.1775C21.1571 17.4576 21.4935 17.663 21.8857 17.7937C22.278 17.9244 22.6799 17.99 23.0908 17.99C24.1742 17.9899 25.0801 17.5977 25.8086 16.8132C26.5372 16.0099 26.9023 15.0475 26.9023 13.9265C26.9023 12.843 26.5284 11.9181 25.7812 11.1521C25.0527 10.3675 24.1556 9.97445 23.0908 9.97437C22.6799 9.97437 22.278 10.0496 21.8857 10.199C21.5122 10.3484 21.1758 10.5634 20.877 10.8435L12.0205 19.1951C11.4975 19.6808 10.8904 20.045 10.1992 20.2878C9.50793 20.512 8.80665 20.6248 8.09668 20.6248C6.28469 20.6247 4.76226 19.9704 3.5293 18.6628C2.29623 17.3363 1.67972 15.7574 1.67969 13.9265C1.67969 12.1142 2.2962 10.5633 3.5293 9.27417C4.78096 7.98521 6.30333 7.34067 8.09668 7.34058C8.82533 7.34058 9.52662 7.46195 10.1992 7.70483C10.8904 7.94772 11.4974 8.32153 12.0205 8.82593L14.375 11.0681L12.4688 12.8894L10.3389 10.8152C10.04 10.5164 9.69397 10.3014 9.30176 10.1707C8.90956 10.04 8.50755 9.97437 8.09668 9.97437C7.03191 9.97447 6.13481 10.3675 5.40625 11.1521C4.67781 11.9181 4.31348 12.843 4.31348 13.9265C4.31351 15.0475 4.66897 16.0099 5.37891 16.8132C6.10742 17.5977 7.01335 17.9899 8.09668 17.99C8.50771 17.99 8.90075 17.9245 9.27441 17.7937C9.66656 17.6629 10.0214 17.4576 10.3389 17.1775L19.1953 8.82593C19.7183 8.32159 20.3158 7.94771 20.9883 7.70483C21.6796 7.46195 22.3809 7.34058 23.0908 7.34058ZM-27.0596 4.43823C-26.099 4.43823 -25.2474 4.53873 -24.5059 4.74097C-23.7645 4.92634 -23.183 5.19573 -22.7617 5.54956C-22.3236 5.90347 -22.1045 6.33402 -22.1045 6.8396C-22.1045 7.17638 -22.1891 7.48787 -22.3574 7.77417C-22.5259 8.04367 -22.7366 8.2629 -22.9893 8.4314C-23.3768 8.1618 -23.8995 7.92658 -24.5566 7.72437C-25.2138 7.52217 -25.93 7.42069 -26.7051 7.42065C-27.5309 7.42065 -28.1634 7.56384 -28.6016 7.85034C-29.0229 8.13684 -29.2334 8.51617 -29.2334 8.98804C-29.2334 9.34192 -29.0902 9.63687 -28.8037 9.8728C-28.5172 10.1087 -28.079 10.3193 -27.4893 10.5046L-26.0732 10.9343C-24.5566 11.3893 -23.3938 12.0048 -22.585 12.78C-21.7593 13.5384 -21.3467 14.575 -21.3467 15.8894C-21.3467 17.2879 -21.8941 18.4253 -22.9893 19.3015C-24.0678 20.1778 -25.6184 20.6159 -27.6406 20.616C-28.6686 20.616 -29.5876 20.5069 -30.3965 20.2878C-31.2053 20.0688 -31.8455 19.7567 -32.3174 19.3523C-32.7723 18.9479 -32.9999 18.4763 -33 17.9373C-33 17.5328 -32.8824 17.1866 -32.6465 16.9001C-32.3937 16.5968 -32.1149 16.3692 -31.8115 16.2175C-31.3565 16.5883 -30.7837 16.9259 -30.0928 17.2292C-29.4019 17.5157 -28.6183 17.6589 -27.7422 17.6589C-26.8153 17.6589 -26.141 17.4901 -25.7197 17.1531C-25.2984 16.7992 -25.0879 16.3696 -25.0879 15.864C-25.0879 15.409 -25.2567 15.0382 -25.5938 14.7517C-25.914 14.4653 -26.4025 14.2205 -27.0596 14.0183L-28.5 13.5632C-29.3932 13.2767 -30.1775 12.9486 -30.8516 12.5779C-31.5088 12.2071 -32.0314 11.7348 -32.4189 11.1619C-32.7896 10.5889 -32.9746 9.86423 -32.9746 8.98804C-32.9746 7.58926 -32.4521 6.48545 -31.4072 5.67651C-30.3455 4.85079 -28.8964 4.43825 -27.0596 4.43823ZM40.2979 4.43823C41.2585 4.43823 42.11 4.53873 42.8516 4.74097C43.5929 4.92632 44.1744 5.19575 44.5957 5.54956C45.0339 5.90347 45.2529 6.33402 45.2529 6.8396C45.2529 7.17641 45.1684 7.48785 45 7.77417C44.8315 8.04372 44.6208 8.26289 44.3682 8.4314C43.9806 8.16181 43.4579 7.92656 42.8008 7.72437C42.1436 7.52215 41.4275 7.42068 40.6523 7.42065C39.8266 7.42065 39.194 7.56384 38.7559 7.85034C38.3347 8.13683 38.124 8.51622 38.124 8.98804C38.124 9.34188 38.2673 9.63689 38.5537 9.8728C38.8402 10.1087 39.2785 10.3193 39.8682 10.5046L41.2842 10.9343C42.8009 11.3893 43.9635 12.0048 44.7725 12.78C45.5982 13.5384 46.0107 14.5749 46.0107 15.8894C46.0107 17.288 45.4634 18.4252 44.3682 19.3015C43.2896 20.1779 41.7391 20.616 39.7168 20.616C38.6888 20.616 37.7699 20.5069 36.9609 20.2878C36.1522 20.0688 35.5118 19.7567 35.04 19.3523C34.5852 18.948 34.3575 18.4763 34.3574 17.9373C34.3574 17.5328 34.476 17.1866 34.7119 16.9001C34.9646 16.597 35.2427 16.3692 35.5459 16.2175C36.0009 16.5883 36.5737 16.9259 37.2646 17.2292C37.9555 17.5157 38.7391 17.6589 39.6152 17.6589C40.542 17.6589 41.2164 17.4901 41.6377 17.1531C42.059 16.7992 42.2695 16.3696 42.2695 15.864C42.2695 15.4091 42.1016 15.0382 41.7646 14.7517C41.4444 14.4652 40.9551 14.2205 40.2979 14.0183L38.8574 13.5632C37.9642 13.2767 37.18 12.9486 36.5059 12.5779C35.8488 12.2072 35.327 11.7347 34.9395 11.1619C34.5687 10.5889 34.3828 9.86436 34.3828 8.98804C34.3828 7.58928 34.9054 6.48544 35.9502 5.67651C37.0118 4.85078 38.4611 4.43828 40.2979 4.43823ZM81.333 7.74976C82.1587 7.74977 82.8919 7.83319 83.5322 8.00171C84.1894 8.15338 84.7035 8.38954 85.0742 8.70972C85.4618 9.02992 85.6553 9.41778 85.6553 9.8728C85.6553 10.193 85.5879 10.4794 85.4531 10.7322C85.3183 10.9681 85.1495 11.1616 84.9473 11.3132C84.7619 11.1954 84.4837 11.069 84.1133 10.9343C83.7426 10.7996 83.3298 10.6904 82.875 10.6062C82.437 10.5051 82.0157 10.4539 81.6113 10.4539C81.0046 10.4539 80.5153 10.5468 80.1445 10.7322C79.7908 10.9175 79.6144 11.1871 79.6143 11.5408C79.6143 11.7767 79.7148 11.9882 79.917 12.1736C80.1192 12.342 80.4732 12.4853 80.9785 12.6033L82.0908 12.8552C83.557 13.1923 84.6106 13.6731 85.251 14.2966C85.8914 14.9202 86.2119 15.7291 86.2119 16.7234C86.2119 17.9367 85.7566 18.8889 84.8467 19.5798C83.9367 20.2708 82.6222 20.6159 80.9033 20.616C79.5214 20.616 78.3834 20.414 77.4902 20.0095C76.614 19.5882 76.1758 19.0068 76.1758 18.2654C76.1758 17.9452 76.2517 17.6588 76.4033 17.406C76.555 17.1364 76.7409 16.9258 76.96 16.7742C77.4486 17.0606 78.0046 17.3215 78.6279 17.5574C79.2514 17.7933 79.9676 17.9118 80.7764 17.9119C82.074 17.9119 82.7236 17.5239 82.7236 16.7488C82.7236 16.4286 82.6051 16.1754 82.3691 15.99C82.1332 15.7879 81.7623 15.636 81.2568 15.5349L80.0439 15.2322C78.7465 14.9626 77.7771 14.5328 77.1367 13.9431C76.4963 13.3533 76.1758 12.5519 76.1758 11.5408C76.1759 10.395 76.6396 9.47677 77.5664 8.78589C78.4933 8.09494 79.7489 7.74976 81.333 7.74976ZM53.998 7.77417C55.1438 7.77418 56.138 8.00194 56.9805 8.45679C57.8399 8.9118 58.5142 9.53583 59.0029 10.3279C59.4917 11.12 59.7363 12.0303 59.7363 13.0583C59.7363 13.5636 59.6014 13.9509 59.332 14.2205C59.0624 14.4732 58.6915 14.6335 58.2197 14.7009L51.4209 15.696C51.6238 16.3858 51.9841 16.9061 52.5068 17.2546C53.164 17.6926 53.9646 17.9119 54.9082 17.9119C55.6159 17.9118 56.2732 17.8104 56.8799 17.6082C57.5033 17.4059 58.0004 17.1868 58.3711 16.9509C58.607 17.1026 58.8015 17.3046 58.9531 17.5574C59.1216 17.8102 59.2051 18.0805 59.2051 18.3669C59.205 18.8387 59.003 19.2429 58.5986 19.5798C58.211 19.9169 57.68 20.1701 57.0059 20.3386C56.3319 20.5071 55.5568 20.5915 54.6807 20.5916C53.3663 20.5916 52.1949 20.3468 51.167 19.8582C50.1559 19.3695 49.3554 18.6362 48.7656 17.6589C48.1926 16.6815 47.9053 15.4676 47.9053 14.0183C47.9053 12.9737 48.0742 12.0554 48.4111 11.2634C48.7482 10.4713 49.1948 9.82174 49.751 9.31616C50.3238 8.79389 50.9728 8.40683 51.6973 8.15405C52.4388 7.90126 53.206 7.77417 53.998 7.77417ZM94.2617 7.77417C95.4074 7.77418 96.4016 8.00194 97.2441 8.45679C98.1036 8.9118 98.7779 9.53582 99.2666 10.3279C99.7553 11.12 100 12.0303 100 13.0583C99.9999 13.5636 99.8651 13.9509 99.5957 14.2205C99.3261 14.4732 98.9552 14.6335 98.4834 14.7009L91.6846 15.696C91.8875 16.3858 92.2477 16.9061 92.7705 17.2546C93.4277 17.6926 94.2283 17.9119 95.1719 17.9119C95.8796 17.9118 96.5369 17.8104 97.1436 17.6082C97.767 17.4059 98.264 17.1868 98.6348 16.9509C98.8706 17.1025 99.0642 17.3048 99.2158 17.5574C99.3843 17.8102 99.4688 18.0804 99.4688 18.3669C99.4686 18.8386 99.2666 19.2429 98.8623 19.5798C98.4747 19.9169 97.9436 20.1701 97.2695 20.3386C96.5955 20.5071 95.8205 20.5915 94.9443 20.5916C93.63 20.5916 92.4586 20.3468 91.4307 19.8582C90.4196 19.3695 89.6191 18.6362 89.0293 17.6589C88.4563 16.6815 88.1689 15.4676 88.1689 14.0183C88.169 12.9737 88.3379 12.0554 88.6748 11.2634C89.0119 10.4713 89.4585 9.82174 90.0146 9.31616C90.5875 8.79389 91.2365 8.40682 91.9609 8.15405C92.7025 7.90126 93.4696 7.77417 94.2617 7.77417ZM-5.82324 7.77417C-4.94706 7.77417 -4.1379 7.926 -3.39648 8.22925C-2.63814 8.51573 -2.03973 8.98804 -1.60156 9.64526C-1.1466 10.2856 -0.919008 11.1365 -0.918945 12.198V20.1863C-1.07062 20.22 -1.28969 20.2627 -1.57617 20.3132C-1.86264 20.3638 -2.17471 20.3884 -2.51172 20.3884C-3.18567 20.3884 -3.67424 20.2708 -3.97754 20.0349C-4.28087 19.799 -4.4326 19.3693 -4.43262 18.7458V12.325C-4.43262 11.7183 -4.60996 11.2716 -4.96387 10.9851C-5.3009 10.6987 -5.74768 10.5554 -6.30371 10.5554C-6.708 10.5555 -7.10376 10.6399 -7.49121 10.8083C-7.77937 10.9393 -8.03659 11.0962 -8.26367 11.2781C-8.22261 11.481 -8.19922 11.6865 -8.19922 11.8953V20.1863C-8.35089 20.22 -8.57849 20.2627 -8.88184 20.3132C-9.16829 20.3638 -9.47185 20.3884 -9.79199 20.3884C-10.466 20.3884 -10.963 20.2708 -11.2832 20.0349C-11.5865 19.799 -11.7383 19.3693 -11.7383 18.7458V12.325C-11.7383 11.7183 -11.9156 11.2716 -12.2695 10.9851C-12.6233 10.6988 -13.0779 10.5555 -13.6338 10.5554C-14.0214 10.5554 -14.3761 10.6142 -14.6963 10.7322C-15.0163 10.8501 -15.2859 10.9763 -15.5049 11.1111V20.1863C-15.6566 20.22 -15.8756 20.2627 -16.1621 20.3132C-16.4486 20.3638 -16.7606 20.3884 -17.0977 20.3884C-17.7548 20.3884 -18.2433 20.2708 -18.5635 20.0349C-18.8668 19.799 -19.0185 19.3693 -19.0186 18.7458V10.783C-19.0186 10.3785 -18.9342 10.0409 -18.7656 9.77124C-18.5803 9.5018 -18.3192 9.24921 -17.9824 9.01343C-17.4432 8.64271 -16.7773 8.34774 -15.9854 8.12866C-15.1764 7.89273 -14.3504 7.77417 -13.5078 7.77417C-12.682 7.77417 -11.9234 7.90126 -11.2324 8.15405C-10.6734 8.35373 -10.184 8.63362 -9.76172 8.99097C-9.34925 8.71299 -8.89621 8.46672 -8.40137 8.25464C-7.6768 7.93451 -6.81737 7.7742 -5.82324 7.77417ZM67.9287 7.77417C69.698 7.77424 71.0715 8.17064 72.0488 8.96265C73.0263 9.73787 73.5146 10.8759 73.5146 12.3757V20.1863C73.363 20.22 73.1438 20.2627 72.8574 20.3132C72.571 20.3638 72.2674 20.3884 71.9473 20.3884C71.2733 20.3884 70.7762 20.2708 70.4561 20.0349C70.1528 19.799 70.001 19.3693 70.001 18.7458V12.4763C70.0009 11.8193 69.8073 11.3392 69.4199 11.0359C69.0324 10.7157 68.5182 10.5555 67.8779 10.5554C67.4229 10.5554 67.0094 10.6142 66.6387 10.7322C66.2681 10.8333 65.9312 10.968 65.6279 11.1365V20.1863C65.4763 20.22 65.2572 20.2627 64.9707 20.3132C64.6842 20.3638 64.3722 20.3884 64.0352 20.3884C63.3781 20.3884 62.8895 20.2708 62.5693 20.0349C62.266 19.799 62.1143 19.3693 62.1143 18.7458V10.783C62.1143 10.3616 62.1987 10.024 62.3672 9.77124C62.5525 9.5018 62.8136 9.24921 63.1504 9.01343C63.6728 8.65953 64.3471 8.3646 65.1729 8.12866C65.9986 7.89272 66.9176 7.77417 67.9287 7.77417ZM54.0234 10.4041C53.2145 10.4041 52.5488 10.6734 52.0264 11.2126C51.5511 11.7032 51.2798 12.3892 51.209 13.2703L56.4248 12.4763C56.3742 11.9372 56.1465 11.4571 55.7422 11.0359C55.3546 10.6146 54.7817 10.4041 54.0234 10.4041ZM94.2871 10.4041C93.4782 10.4041 92.8125 10.6734 92.29 11.2126C91.8148 11.7032 91.5435 12.3892 91.4727 13.2703L96.6885 12.4763C96.6379 11.9372 96.4102 11.4571 96.0059 11.0359C95.6183 10.6146 95.0454 10.4041 94.2871 10.4041Z" fill="url(#paint0_linear_74_7279)"/>
<path d="M32.9701 3.92921C33.2634 3.7382 33.2142 3.54073 32.8625 3.49723L30.9563 3.26419C30.6201 3.22997 30.173 2.96119 29.9696 2.67103L28.8697 1.09676C28.6787 0.803531 28.4812 0.852717 28.4377 1.20436L28.2047 3.11063C28.1704 3.44685 27.9017 3.89393 27.6115 4.09728L26.0372 5.19721C25.744 5.38822 25.7932 5.5857 26.1448 5.6292L28.0511 5.86223C28.3873 5.89646 28.8344 6.16524 29.0378 6.45539L30.1377 8.02963C30.3287 8.32286 30.5262 8.27368 30.5697 7.92204L30.8027 6.0158C30.8369 5.67957 31.1057 5.23249 31.3959 5.02914L32.9701 3.92921Z" fill="url(#paint1_linear_74_7279)"/>
</g>
<defs>
<linearGradient id="paint0_linear_74_7279" x1="-35.2931" y1="4.4809" x2="-16.3283" y2="61.1841" gradientUnits="userSpaceOnUse">
<stop stop-color="#FF9D3F"/>
<stop offset="0.3125" stop-color="#F46772"/>
<stop offset="0.668269" stop-color="#C56AED"/>
<stop offset="1" stop-color="#62A4F8"/>
</linearGradient>
<linearGradient id="paint1_linear_74_7279" x1="24.8194" y1="1.8709" x2="34.793" y2="2.92104" gradientUnits="userSpaceOnUse">
<stop stop-color="#FF9D3F"/>
<stop offset="0.3125" stop-color="#F46772"/>
<stop offset="0.668269" stop-color="#C56AED"/>
<stop offset="1" stop-color="#62A4F8"/>
</linearGradient>
</defs>
</svg>
