<svg width="133" height="21" viewBox="0 0 133 21" fill="none" xmlns="http://www.w3.org/2000/svg">
<path d="M56.0908 7.34058C57.9029 7.34066 59.4252 7.98521 60.6582 9.27417C61.91 10.5633 62.5361 12.1142 62.5361 13.9265C62.5361 15.7574 61.91 17.3363 60.6582 18.6628C59.4252 19.9704 57.9028 20.6247 56.0908 20.6248C55.3809 20.6248 54.6796 20.512 53.9883 20.2878C53.2972 20.045 52.6997 19.6711 52.1953 19.1667L49.9248 16.9255L51.8027 15.1033L53.877 17.1775C54.1571 17.4576 54.4935 17.663 54.8857 17.7937C55.278 17.9244 55.6799 17.99 56.0908 17.99C57.1742 17.9899 58.0801 17.5977 58.8086 16.8132C59.5372 16.0099 59.9023 15.0475 59.9023 13.9265C59.9023 12.843 59.5284 11.9181 58.7812 11.1521C58.0527 10.3675 57.1556 9.97445 56.0908 9.97437C55.6799 9.97437 55.278 10.0496 54.8857 10.199C54.5122 10.3484 54.1758 10.5634 53.877 10.8435L45.0205 19.1951C44.4975 19.6808 43.8904 20.045 43.1992 20.2878C42.5079 20.512 41.8066 20.6248 41.0967 20.6248C39.2847 20.6247 37.7623 19.9704 36.5293 18.6628C35.2962 17.3363 34.6797 15.7574 34.6797 13.9265C34.6797 12.1142 35.2962 10.5633 36.5293 9.27417C37.781 7.98521 39.3033 7.34067 41.0967 7.34058C41.8253 7.34058 42.5266 7.46195 43.1992 7.70483C43.8904 7.94772 44.4974 8.32153 45.0205 8.82593L47.375 11.0681L45.4688 12.8894L43.3389 10.8152C43.04 10.5164 42.694 10.3014 42.3018 10.1707C41.9096 10.04 41.5075 9.97437 41.0967 9.97437C40.0319 9.97447 39.1348 10.3675 38.4062 11.1521C37.6778 11.9181 37.3135 12.843 37.3135 13.9265C37.3135 15.0475 37.669 16.0099 38.3789 16.8132C39.1074 17.5977 40.0133 17.9899 41.0967 17.99C41.5077 17.99 41.9007 17.9245 42.2744 17.7937C42.6666 17.6629 43.0214 17.4576 43.3389 17.1775L52.1953 8.82593C52.7183 8.32159 53.3158 7.94771 53.9883 7.70483C54.6796 7.46195 55.3809 7.34058 56.0908 7.34058ZM5.94043 4.43823C6.90103 4.43823 7.75262 4.53873 8.49414 4.74097C9.23546 4.92634 9.81704 5.19573 10.2383 5.54956C10.6764 5.90347 10.8955 6.33402 10.8955 6.8396C10.8955 7.17638 10.8109 7.48787 10.6426 7.77417C10.4741 8.04367 10.2634 8.2629 10.0107 8.4314C9.62319 8.1618 9.10047 7.92658 8.44336 7.72437C7.78624 7.52217 7.06996 7.42069 6.29492 7.42065C5.46914 7.42065 4.83661 7.56384 4.39844 7.85034C3.97714 8.13684 3.7666 8.51617 3.7666 8.98804C3.76661 9.34192 3.90981 9.63687 4.19629 9.8728C4.48277 10.1087 4.92095 10.3193 5.51074 10.5046L6.92676 10.9343C8.44337 11.3893 9.60616 12.0048 10.415 12.78C11.2407 13.5384 11.6533 14.575 11.6533 15.8894C11.6533 17.2879 11.1059 18.4253 10.0107 19.3015C8.93222 20.1778 7.38157 20.6159 5.35938 20.616C4.33136 20.616 3.41244 20.5069 2.60352 20.2878C1.79467 20.0688 1.15446 19.7567 0.682617 19.3523C0.227738 18.9479 0.000127103 18.4763 0 17.9373C0 17.5328 0.117614 17.1866 0.353516 16.9001C0.606305 16.5968 0.885129 16.3692 1.18848 16.2175C1.64349 16.5883 2.21631 16.9259 2.90723 17.2292C3.59808 17.5157 4.38165 17.6589 5.25781 17.6589C6.18471 17.6589 6.85896 17.4901 7.28027 17.1531C7.70156 16.7992 7.91208 16.3696 7.91211 15.864C7.91211 15.409 7.7433 15.0382 7.40625 14.7517C7.08605 14.4653 6.59753 14.2205 5.94043 14.0183L4.5 13.5632C3.60681 13.2767 2.82254 12.9486 2.14844 12.5779C1.49123 12.2071 0.968646 11.7348 0.581055 11.1619C0.210414 10.5889 0.0253975 9.86423 0.0253906 8.98804C0.0253906 7.58926 0.54791 6.48545 1.59277 5.67651C2.65446 4.85079 4.1036 4.43825 5.94043 4.43823ZM73.2979 4.43823C74.2585 4.43823 75.11 4.53873 75.8516 4.74097C76.5929 4.92632 77.1744 5.19575 77.5957 5.54956C78.0339 5.90347 78.2529 6.33402 78.2529 6.8396C78.2529 7.17641 78.1684 7.48785 78 7.77417C77.8315 8.04372 77.6208 8.26289 77.3682 8.4314C76.9806 8.16181 76.4579 7.92656 75.8008 7.72437C75.1436 7.52215 74.4275 7.42068 73.6523 7.42065C72.8266 7.42065 72.194 7.56384 71.7559 7.85034C71.3347 8.13683 71.124 8.51622 71.124 8.98804C71.124 9.34188 71.2673 9.63689 71.5537 9.8728C71.8402 10.1087 72.2785 10.3193 72.8682 10.5046L74.2842 10.9343C75.8009 11.3893 76.9635 12.0048 77.7725 12.78C78.5982 13.5384 79.0107 14.5749 79.0107 15.8894C79.0107 17.288 78.4634 18.4252 77.3682 19.3015C76.2896 20.1779 74.7391 20.616 72.7168 20.616C71.6888 20.616 70.7699 20.5069 69.9609 20.2878C69.1522 20.0688 68.5118 19.7567 68.04 19.3523C67.5852 18.948 67.3575 18.4763 67.3574 17.9373C67.3574 17.5328 67.476 17.1866 67.7119 16.9001C67.9646 16.597 68.2427 16.3692 68.5459 16.2175C69.0009 16.5883 69.5737 16.9259 70.2646 17.2292C70.9555 17.5157 71.7391 17.6589 72.6152 17.6589C73.542 17.6589 74.2164 17.4901 74.6377 17.1531C75.059 16.7992 75.2695 16.3696 75.2695 15.864C75.2695 15.4091 75.1016 15.0382 74.7646 14.7517C74.4444 14.4652 73.9551 14.2205 73.2979 14.0183L71.8574 13.5632C70.9642 13.2767 70.18 12.9486 69.5059 12.5779C68.8488 12.2072 68.327 11.7347 67.9395 11.1619C67.5687 10.5889 67.3828 9.86436 67.3828 8.98804C67.3828 7.58928 67.9054 6.48544 68.9502 5.67651C70.0118 4.85078 71.4611 4.43828 73.2979 4.43823ZM114.333 7.74976C115.159 7.74977 115.892 7.83319 116.532 8.00171C117.189 8.15338 117.703 8.38954 118.074 8.70972C118.462 9.02992 118.655 9.41778 118.655 9.8728C118.655 10.193 118.588 10.4794 118.453 10.7322C118.318 10.9681 118.149 11.1616 117.947 11.3132C117.762 11.1954 117.484 11.069 117.113 10.9343C116.743 10.7996 116.33 10.6904 115.875 10.6062C115.437 10.5051 115.016 10.4539 114.611 10.4539C114.005 10.4539 113.515 10.5468 113.145 10.7322C112.791 10.9175 112.614 11.1871 112.614 11.5408C112.614 11.7767 112.715 11.9882 112.917 12.1736C113.119 12.342 113.473 12.4853 113.979 12.6033L115.091 12.8552C116.557 13.1923 117.611 13.6731 118.251 14.2966C118.891 14.9202 119.212 15.7291 119.212 16.7234C119.212 17.9367 118.757 18.8889 117.847 19.5798C116.937 20.2708 115.622 20.6159 113.903 20.616C112.521 20.616 111.383 20.414 110.49 20.0095C109.614 19.5882 109.176 19.0068 109.176 18.2654C109.176 17.9452 109.252 17.6588 109.403 17.406C109.555 17.1364 109.741 16.9258 109.96 16.7742C110.449 17.0606 111.005 17.3215 111.628 17.5574C112.251 17.7933 112.968 17.9118 113.776 17.9119C115.074 17.9119 115.724 17.5239 115.724 16.7488C115.724 16.4286 115.605 16.1754 115.369 15.99C115.133 15.7879 114.762 15.636 114.257 15.5349L113.044 15.2322C111.747 14.9626 110.777 14.5328 110.137 13.9431C109.496 13.3533 109.176 12.5519 109.176 11.5408C109.176 10.395 109.64 9.47677 110.566 8.78589C111.493 8.09494 112.749 7.74976 114.333 7.74976ZM86.998 7.77417C88.1438 7.77418 89.138 8.00194 89.9805 8.45679C90.8399 8.9118 91.5142 9.53583 92.0029 10.3279C92.4917 11.12 92.7363 12.0303 92.7363 13.0583C92.7363 13.5636 92.6014 13.9509 92.332 14.2205C92.0624 14.4732 91.6915 14.6335 91.2197 14.7009L84.4209 15.696C84.6238 16.3858 84.9841 16.9061 85.5068 17.2546C86.164 17.6926 86.9646 17.9119 87.9082 17.9119C88.6159 17.9118 89.2732 17.8104 89.8799 17.6082C90.5033 17.4059 91.0004 17.1868 91.3711 16.9509C91.607 17.1026 91.8015 17.3046 91.9531 17.5574C92.1216 17.8102 92.2051 18.0805 92.2051 18.3669C92.205 18.8387 92.003 19.2429 91.5986 19.5798C91.211 19.9169 90.68 20.1701 90.0059 20.3386C89.3319 20.5071 88.5568 20.5915 87.6807 20.5916C86.3663 20.5916 85.1949 20.3468 84.167 19.8582C83.1559 19.3695 82.3554 18.6362 81.7656 17.6589C81.1926 16.6815 80.9053 15.4676 80.9053 14.0183C80.9053 12.9737 81.0742 12.0554 81.4111 11.2634C81.7482 10.4713 82.1948 9.82174 82.751 9.31616C83.3238 8.79389 83.9728 8.40683 84.6973 8.15405C85.4388 7.90126 86.206 7.77417 86.998 7.77417ZM127.262 7.77417C128.407 7.77418 129.402 8.00194 130.244 8.45679C131.104 8.9118 131.778 9.53582 132.267 10.3279C132.755 11.12 133 12.0303 133 13.0583C133 13.5636 132.865 13.9509 132.596 14.2205C132.326 14.4732 131.955 14.6335 131.483 14.7009L124.685 15.696C124.887 16.3858 125.248 16.9061 125.771 17.2546C126.428 17.6926 127.228 17.9119 128.172 17.9119C128.88 17.9118 129.537 17.8104 130.144 17.6082C130.767 17.4059 131.264 17.1868 131.635 16.9509C131.871 17.1025 132.064 17.3048 132.216 17.5574C132.384 17.8102 132.469 18.0804 132.469 18.3669C132.469 18.8386 132.267 19.2429 131.862 19.5798C131.475 19.9169 130.944 20.1701 130.27 20.3386C129.596 20.5071 128.82 20.5915 127.944 20.5916C126.63 20.5916 125.459 20.3468 124.431 19.8582C123.42 19.3695 122.619 18.6362 122.029 17.6589C121.456 16.6815 121.169 15.4676 121.169 14.0183C121.169 12.9737 121.338 12.0554 121.675 11.2634C122.012 10.4713 122.459 9.82174 123.015 9.31616C123.588 8.79389 124.236 8.40682 124.961 8.15405C125.702 7.90126 126.47 7.77417 127.262 7.77417ZM27.1768 7.77417C28.0529 7.77417 28.8621 7.926 29.6035 8.22925C30.3619 8.51573 30.9603 8.98804 31.3984 9.64526C31.8534 10.2856 32.081 11.1365 32.0811 12.198V20.1863C31.9294 20.22 31.7103 20.2627 31.4238 20.3132C31.1374 20.3638 30.8253 20.3884 30.4883 20.3884C29.8143 20.3884 29.3258 20.2708 29.0225 20.0349C28.7191 19.799 28.5674 19.3693 28.5674 18.7458V12.325C28.5674 11.7183 28.39 11.2716 28.0361 10.9851C27.6991 10.6987 27.2523 10.5554 26.6963 10.5554C26.292 10.5555 25.8962 10.6399 25.5088 10.8083C25.2206 10.9393 24.9634 11.0962 24.7363 11.2781C24.7774 11.481 24.8008 11.6865 24.8008 11.8953V20.1863C24.6491 20.22 24.4215 20.2627 24.1182 20.3132C23.8317 20.3638 23.5282 20.3884 23.208 20.3884C22.534 20.3884 22.037 20.2708 21.7168 20.0349C21.4135 19.799 21.2617 19.3693 21.2617 18.7458V12.325C21.2617 11.7183 21.0844 11.2716 20.7305 10.9851C20.3767 10.6988 19.9221 10.5555 19.3662 10.5554C18.9786 10.5554 18.6239 10.6142 18.3037 10.7322C17.9837 10.8501 17.7141 10.9763 17.4951 11.1111V20.1863C17.3434 20.22 17.1244 20.2627 16.8379 20.3132C16.5514 20.3638 16.2394 20.3884 15.9023 20.3884C15.2452 20.3884 14.7567 20.2708 14.4365 20.0349C14.1332 19.799 13.9815 19.3693 13.9814 18.7458V10.783C13.9814 10.3785 14.0658 10.0409 14.2344 9.77124C14.4197 9.5018 14.6808 9.24921 15.0176 9.01343C15.5568 8.64271 16.2227 8.34774 17.0146 8.12866C17.8236 7.89273 18.6496 7.77417 19.4922 7.77417C20.318 7.77417 21.0766 7.90126 21.7676 8.15405C22.3266 8.35373 22.816 8.63362 23.2383 8.99097C23.6508 8.71299 24.1038 8.46672 24.5986 8.25464C25.3232 7.93451 26.1826 7.7742 27.1768 7.77417ZM100.929 7.77417C102.698 7.77424 104.071 8.17064 105.049 8.96265C106.026 9.73787 106.515 10.8759 106.515 12.3757V20.1863C106.363 20.22 106.144 20.2627 105.857 20.3132C105.571 20.3638 105.267 20.3884 104.947 20.3884C104.273 20.3884 103.776 20.2708 103.456 20.0349C103.153 19.799 103.001 19.3693 103.001 18.7458V12.4763C103.001 11.8193 102.807 11.3392 102.42 11.0359C102.032 10.7157 101.518 10.5555 100.878 10.5554C100.423 10.5554 100.009 10.6142 99.6387 10.7322C99.2681 10.8333 98.9312 10.968 98.6279 11.1365V20.1863C98.4763 20.22 98.2572 20.2627 97.9707 20.3132C97.6842 20.3638 97.3722 20.3884 97.0352 20.3884C96.3781 20.3884 95.8895 20.2708 95.5693 20.0349C95.266 19.799 95.1143 19.3693 95.1143 18.7458V10.783C95.1143 10.3616 95.1987 10.024 95.3672 9.77124C95.5525 9.5018 95.8136 9.24921 96.1504 9.01343C96.6728 8.65953 97.3471 8.3646 98.1729 8.12866C98.9986 7.89272 99.9176 7.77417 100.929 7.77417ZM87.0234 10.4041C86.2145 10.4041 85.5488 10.6734 85.0264 11.2126C84.5511 11.7032 84.2798 12.3892 84.209 13.2703L89.4248 12.4763C89.3742 11.9372 89.1465 11.4571 88.7422 11.0359C88.3546 10.6146 87.7817 10.4041 87.0234 10.4041ZM127.287 10.4041C126.478 10.4041 125.812 10.6734 125.29 11.2126C124.815 11.7032 124.543 12.3892 124.473 13.2703L129.688 12.4763C129.638 11.9372 129.41 11.4571 129.006 11.0359C128.618 10.6146 128.045 10.4041 127.287 10.4041Z" fill="url(#paint0_linear_93_1774)"/>
<path d="M65.9701 3.92921C66.2634 3.7382 66.2142 3.54073 65.8625 3.49723L63.9563 3.26419C63.6201 3.22997 63.173 2.96119 62.9696 2.67103L61.8697 1.09676C61.6787 0.803531 61.4812 0.852717 61.4377 1.20436L61.2047 3.11063C61.1704 3.44685 60.9017 3.89393 60.6115 4.09728L59.0372 5.19721C58.744 5.38822 58.7932 5.5857 59.1448 5.6292L61.0511 5.86223C61.3873 5.89646 61.8344 6.16524 62.0378 6.45539L63.1377 8.02963C63.3287 8.32286 63.5262 8.27368 63.5697 7.92204L63.8027 6.0158C63.8369 5.67957 64.1057 5.23249 64.3959 5.02914L65.9701 3.92921Z" fill="url(#paint1_linear_93_1774)"/>
<defs>
<linearGradient id="paint0_linear_93_1774" x1="-2.2931" y1="4.4809" x2="16.6717" y2="61.1841" gradientUnits="userSpaceOnUse">
<stop stop-color="#FF9D3F"/>
<stop offset="0.3125" stop-color="#F46772"/>
<stop offset="0.668269" stop-color="#C56AED"/>
<stop offset="1" stop-color="#62A4F8"/>
</linearGradient>
<linearGradient id="paint1_linear_93_1774" x1="57.8194" y1="1.8709" x2="67.793" y2="2.92104" gradientUnits="userSpaceOnUse">
<stop stop-color="#FF9D3F"/>
<stop offset="0.3125" stop-color="#F46772"/>
<stop offset="0.668269" stop-color="#C56AED"/>
<stop offset="1" stop-color="#62A4F8"/>
</linearGradient>
</defs>
</svg>
